<svg width="900" height="700" viewBox="0 0 900 700" fill="none" xmlns="http://www.w3.org/2000/svg">
  <defs>
    <linearGradient id="g1" x1="0" y1="0" x2="1" y2="1">
      <stop offset="0" stop-color="#6366f1" />
      <stop offset="1" stop-color="#0ea5e9" />
    </linearGradient>
    <linearGradient id="g2" x1="0" y1="1" x2="1" y2="0">
      <stop offset="0" stop-color="#f59e0b" />
      <stop offset="1" stop-color="#ef4444" />
    </linearGradient>
  </defs>
  <rect x="40" y="40" width="820" height="620" rx="48" fill="#f8fafc"/>
  <rect x="80" y="90" width="520" height="30" rx="15" fill="#e2e8f0"/>
  <rect x="80" y="140" width="420" height="18" rx="9" fill="#cbd5f5"/>
  <rect x="80" y="190" width="360" height="18" rx="9" fill="#dbeafe"/>
  <circle cx="700" cy="200" r="90" fill="url(#g1)" opacity="0.25"/>
  <circle cx="640" cy="260" r="48" fill="url(#g2)" opacity="0.28"/>
  <path d="M120 420 C 260 330, 360 520, 520 420 C 660 330, 760 470, 820 420" stroke="#94a3b8" stroke-width="2" stroke-dasharray="6 8" />
  <rect x="120" y="450" width="220" height="140" rx="20" fill="#ffffff" stroke="#e2e8f0"/>
  <rect x="380" y="450" width="360" height="140" rx="20" fill="#ffffff" stroke="#e2e8f0"/>
  <rect x="150" y="480" width="160" height="14" rx="7" fill="#cbd5f5"/>
  <rect x="410" y="480" width="240" height="14" rx="7" fill="#dbeafe"/>
  <rect x="410" y="510" width="200" height="12" rx="6" fill="#e2e8f0"/>
  <rect x="150" y="510" width="120" height="12" rx="6" fill="#e2e8f0"/>
  <circle cx="720" cy="520" r="36" fill="url(#g1)" opacity="0.25"/>
</svg>
