<svg width="900" height="700" viewBox="0 0 900 700" fill="none" xmlns="http://www.w3.org/2000/svg">
  <defs>
    <linearGradient id="o1" x1="0" y1="0" x2="1" y2="1">
      <stop offset="0" stop-color="#6366f1" />
      <stop offset="1" stop-color="#0ea5e9" />
    </linearGradient>
    <linearGradient id="o2" x1="0" y1="1" x2="1" y2="0">
      <stop offset="0" stop-color="#f97316" />
      <stop offset="1" stop-color="#ef4444" />
    </linearGradient>
  </defs>
  <rect x="60" y="70" width="780" height="560" rx="48" fill="#0f172a"/>
  <rect x="110" y="130" width="420" height="40" rx="10" fill="#1e293b"/>
  <rect x="110" y="190" width="320" height="24" rx="8" fill="#334155"/>
  <rect x="110" y="240" width="280" height="18" rx="9" fill="#475569"/>
  <rect x="110" y="300" width="520" height="200" rx="24" fill="#111827" stroke="#1f2937"/>
  <rect x="140" y="330" width="240" height="12" rx="6" fill="#64748b"/>
  <rect x="140" y="360" width="320" height="12" rx="6" fill="#94a3b8"/>
  <rect x="140" y="390" width="200" height="12" rx="6" fill="#64748b"/>
  <circle cx="700" cy="220" r="90" fill="url(#o1)" opacity="0.35"/>
  <circle cx="650" cy="460" r="70" fill="url(#o2)" opacity="0.35"/>
  <path d="M640 150 L760 150" stroke="#475569" stroke-width="2" stroke-linecap="round"/>
  <path d="M640 180 L780 180" stroke="#334155" stroke-width="2" stroke-linecap="round"/>
</svg>
