<svg width="900" height="700" viewBox="0 0 900 700" fill="none" xmlns="http://www.w3.org/2000/svg">
  <defs>
    <linearGradient id="p1" x1="0" y1="0" x2="1" y2="1">
      <stop offset="0" stop-color="#22c55e" />
      <stop offset="1" stop-color="#06b6d4" />
    </linearGradient>
    <linearGradient id="p2" x1="0" y1="1" x2="1" y2="0">
      <stop offset="0" stop-color="#6366f1" />
      <stop offset="1" stop-color="#8b5cf6" />
    </linearGradient>
  </defs>
  <rect x="50" y="60" width="800" height="580" rx="48" fill="#f8fafc"/>
  <rect x="110" y="120" width="260" height="160" rx="24" fill="#ffffff" stroke="#e2e8f0"/>
  <rect x="410" y="120" width="320" height="160" rx="24" fill="#ffffff" stroke="#e2e8f0"/>
  <rect x="110" y="320" width="220" height="160" rx="24" fill="#ffffff" stroke="#e2e8f0"/>
  <rect x="370" y="320" width="360" height="160" rx="24" fill="#ffffff" stroke="#e2e8f0"/>
  <rect x="150" y="150" width="180" height="12" rx="6" fill="#cbd5f5"/>
  <rect x="450" y="150" width="240" height="12" rx="6" fill="#dbeafe"/>
  <rect x="150" y="180" width="140" height="10" rx="5" fill="#e2e8f0"/>
  <rect x="450" y="180" width="200" height="10" rx="5" fill="#e2e8f0"/>
  <circle cx="690" cy="400" r="70" fill="url(#p1)" opacity="0.25"/>
  <circle cx="240" cy="420" r="60" fill="url(#p2)" opacity="0.22"/>
  <path d="M140 520 L760 520" stroke="#e2e8f0" stroke-width="2"/>
  <path d="M140 560 L640 560" stroke="#cbd5f5" stroke-width="2"/>
</svg>
